<?xml version="1.0" encoding="utf-8"?>
<!-- Generator: Adobe Illustrator 13.0.0, SVG Export Plug-In . SVG Version: 6.00 Build 14948)  -->
<!DOCTYPE svg PUBLIC "-//W3C//DTD SVG 1.1//EN" "http://www.w3.org/Graphics/SVG/1.1/DTD/svg11.dtd">
<svg version="1.1" id="Layer_1" xmlns="http://www.w3.org/2000/svg" xmlns:xlink="http://www.w3.org/1999/xlink" x="0px" y="0px"
	 width="429.878px" height="431.414px" viewBox="0 0 429.878 431.414" enable-background="new 0 0 429.878 431.414"
	 xml:space="preserve">
<path d="M131.906,120.461c0,6.32-5.121,11.445-11.445,11.445H11.441C5.117,131.906,0,126.781,0,120.461V11.445
	C0,5.117,5.117,0,11.441,0h109.02c6.324,0,11.445,5.117,11.445,11.445V120.461z"/>
<path d="M280.89,120.461c0,6.32-5.117,11.445-11.445,11.445H160.43c-6.32,0-11.445-5.125-11.445-11.445V11.445
	C148.984,5.117,154.109,0,160.43,0h109.015c6.328,0,11.445,5.117,11.445,11.445V120.461z"/>
<path d="M131.906,269.445c0,6.32-5.121,11.445-11.445,11.445H11.441C5.117,280.891,0,275.766,0,269.445V160.43
	c0-6.328,5.117-11.445,11.441-11.445h109.02c6.324,0,11.445,5.117,11.445,11.445V269.445z"/>
<path d="M280.89,269.445c0,6.32-5.117,11.445-11.445,11.445H160.43c-6.32,0-11.445-5.125-11.445-11.445V160.43
	c0-6.328,5.125-11.445,11.445-11.445h109.015c6.328,0,11.445,5.117,11.445,11.445V269.445z"/>
<path d="M429.878,269.445c0,6.32-5.129,11.445-11.449,11.445h-109.02c-6.316,0-11.445-5.125-11.445-11.445V160.43
	c0-6.328,5.129-11.445,11.445-11.445h109.02c6.32,0,11.449,5.117,11.449,11.445V269.445z"/>
<path d="M131.906,419.961c0,6.328-5.121,11.453-11.445,11.453H11.441C5.117,431.414,0,426.289,0,419.961V310.953
	c0-6.328,5.117-11.449,11.441-11.449h109.02c6.324,0,11.445,5.121,11.445,11.449V419.961z"/>
<path d="M280.89,419.961c0,6.328-5.117,11.453-11.445,11.453H160.43c-6.32,0-11.445-5.125-11.445-11.453V310.953
	c0-6.328,5.125-11.449,11.445-11.449h109.015c6.328,0,11.445,5.121,11.445,11.449V419.961z"/>
<path d="M429.878,419.961c0,6.328-5.129,11.453-11.449,11.453h-109.02c-6.316,0-11.445-5.125-11.445-11.453V310.953
	c0-6.328,5.129-11.449,11.445-11.449h109.02c6.32,0,11.449,5.121,11.449,11.449V419.961z"/>
<path fill="none" d="M81.652,182.816c-4.191-4.184-9.758-6.496-15.68-6.496c-5.926,0-11.492,2.312-15.676,6.496
	c-8.559,8.559-8.555,22.637,0.016,31.379c5.875,5.996,7.172,16.172,7.227,16.602l0.023,0.406c0,0.945,0.773,1.719,1.719,1.719
	h13.383c0.953,0,1.723-0.773,1.723-1.719c0.027-0.582,0.66-9.148,7.062-16.812C89.828,204.359,89.914,191.086,81.652,182.816z"/>
<path fill="#FFFFFF" d="M81.027,233.25v-1.367c0.004-0.07,0.582-6.844,5.527-12.762c10.641-12.734,10.551-29.793-0.195-40.543
	c-5.449-5.449-12.688-8.445-20.387-8.445s-14.938,2.996-20.383,8.445c-11.129,11.121-11.137,29.398-0.027,40.734
	c3.938,4.016,5.164,11.363,5.348,12.578v1.359h-2.434c-1.84,0-3.328,1.496-3.328,3.328c0,1.836,1.488,3.328,3.328,3.328h2.434v3.484
	h-2.434c-1.84,0-3.328,1.492-3.328,3.328s1.488,3.328,3.328,3.328h2.434v0.258c0,4.617,3.762,8.375,8.371,8.375h13.383
	c4.617,0,8.375-3.758,8.375-8.375v-0.258H83.5c1.832,0,3.32-1.488,3.32-3.328c0-1.836-1.488-3.32-3.32-3.32h-2.516l0.047-3.492H83.5
	c1.832,0,3.32-1.492,3.32-3.328c0-1.832-1.488-3.328-3.32-3.328H81.027z M74.387,231.668c0,0.945-0.77,1.711-1.723,1.711H59.281
	c-0.945,0-1.719-0.766-1.719-1.711l-0.023-0.406c-0.055-0.434-1.352-10.613-7.227-16.605c-8.57-8.742-8.574-22.816-0.016-31.379
	c4.184-4.184,9.75-6.492,15.676-6.492c5.922,0,11.488,2.309,15.68,6.488c8.262,8.266,8.176,21.547-0.203,31.582
	C75.047,222.516,74.414,231.082,74.387,231.668z"/>
<g>
	<g>
		<path fill="#FFFFFF" d="M72.738,324.211v67.492h15.203c3.051,0,5.227,0.59,6.516,1.762c1.305,1.172,1.949,2.715,1.949,4.605
			c0,1.855-0.645,3.367-1.949,4.547c-1.289,1.172-3.465,1.758-6.516,1.758H44.867c-3.051,0-5.227-0.586-6.523-1.758
			c-1.297-1.18-1.945-2.715-1.945-4.605c0-1.855,0.648-3.375,1.945-4.547s3.473-1.762,6.523-1.762H60.07v-54.82H49.871
			c-3.008,0-5.168-0.59-6.488-1.758c-1.32-1.176-1.977-2.711-1.977-4.602c0-1.859,0.645-3.375,1.945-4.547
			c1.297-1.18,3.469-1.766,6.52-1.766H72.738z"/>
	</g>
</g>
<g>
	<g>
		<path fill="#FFFFFF" d="M226.655,404.375v-2.969c-3.172,1.691-6.672,2.953-10.508,3.805c-3.827,0.844-7.312,1.262-10.437,1.262
			c-6.801,0-12.328-1.801-16.57-5.41c-4.238-3.602-6.363-7.586-6.363-11.953c0-5.316,2.707-10.25,8.129-14.805
			c5.414-4.551,12.906-6.828,22.461-6.828c3.835,0,8.261,0.41,13.288,1.238v-3.035c0-1.891-0.812-3.43-2.438-4.633
			c-1.625-1.195-4.734-1.789-9.304-1.789c-3.746,0-8.609,0.742-14.586,2.227c-2.219,0.531-3.953,0.797-5.191,0.797
			c-1.688,0-3.121-0.602-4.289-1.812c-1.18-1.227-1.766-2.777-1.766-4.672c0-1.074,0.207-2,0.621-2.781
			c0.406-0.781,0.988-1.414,1.727-1.891c0.742-0.469,2.289-1.035,4.633-1.695c3.133-0.867,6.328-1.555,9.582-2.062
			c3.254-0.523,6.203-0.773,8.84-0.773c7.866,0,13.976,1.691,18.319,5.094c4.352,3.398,6.523,8.047,6.523,13.938v26.078h2.164
			c3.051,0,5.223,0.59,6.516,1.762c1.305,1.172,1.953,2.715,1.953,4.605c0,1.855-0.648,3.367-1.953,4.547
			c-1.293,1.172-3.465,1.758-6.516,1.758H226.655z M226.655,381.688c-5.062-0.98-9.742-1.477-14.022-1.477
			c-5.152,0-9.578,1.258-13.289,3.773c-2.309,1.602-3.465,3.227-3.465,4.875c0,1.195,0.559,2.164,1.668,2.906
			c2.062,1.359,4.887,2.039,8.469,2.039c3.051,0,6.5-0.594,10.351-1.789c3.852-1.199,7.281-2.824,10.289-4.883V381.688z"/>
	</g>
</g>
<g>
	<g>
		<path fill="#FFFFFF" d="M347.78,324.211v28.43c3.094-2.016,6.23-3.531,9.422-4.535c3.203-1.012,6.426-1.512,9.676-1.512
			c8.777,0,16.215,3.02,22.316,9.074c6.094,6.059,9.145,13.379,9.145,21.949c0,8.188-2.91,15.043-8.715,20.551
			c-5.809,5.492-13.477,8.246-22.992,8.246c-3.379,0-6.633-0.438-9.766-1.305c-3.129-0.859-6.156-2.133-9.086-3.828v3.094h-14.836
			c-3.043,0-5.215-0.586-6.516-1.758c-1.297-1.18-1.945-2.715-1.945-4.605c0-1.855,0.656-3.375,1.977-4.547s3.484-1.762,6.484-1.762
			h2.168v-54.82h-2.168c-3.043,0-5.215-0.59-6.516-1.758c-1.297-1.176-1.945-2.711-1.945-4.602c0-1.859,0.648-3.375,1.945-4.547
			c1.301-1.18,3.473-1.766,6.516-1.766H347.78z M385.671,377.977c0-5.227-1.836-9.656-5.5-13.281
			c-3.672-3.625-8.164-5.438-13.477-5.438c-5.273,0-9.742,1.812-13.414,5.438c-3.664,3.625-5.5,7.992-5.5,13.102
			c0,4.664,1.648,8.477,4.949,11.465c3.297,2.988,7.949,4.48,13.965,4.48s10.684-1.492,14-4.48
			C384.007,386.273,385.671,382.516,385.671,377.977z"/>
	</g>
</g>
<g>
	<path fill="#FFFFFF" d="M360.413,254.656l-20.852-22.453h-13.207c-0.98,0-1.918-0.391-2.605-1.078l0,0
		c-0.691-0.688-1.086-1.641-1.086-2.609l0,0v-26.484c0-0.969,0.395-1.922,1.086-2.609l0,0c0.688-0.688,1.625-1.078,2.605-1.078l0,0
		h13.207l20.852-22.445c1.039-1.113,2.641-1.477,4.059-0.922l0,0c1.402,0.551,2.332,1.918,2.332,3.426l0,0v73.746
		c0,1.52-0.93,2.883-2.332,3.438l0,0c-0.438,0.168-0.887,0.25-1.34,0.25l0,0C362.12,255.836,361.132,255.426,360.413,254.656
		L360.413,254.656z M341.171,222.992c1.996,2.266,1.996,2.266,2.703,3.023l0,0l15.562,16.738v-54.965l-15.562,16.75
		c-0.707,0.75-0.707,0.75-2.703,3.02V222.992z"/>
	<path fill="#FFFFFF" d="M385.198,253.059c-1.438-1.449-1.438-3.785,0-5.23l0,0c8.996-9,13.48-20.754,13.488-32.543l0,0
		c-0.008-11.801-4.484-23.562-13.488-32.559l0,0h0.004c-1.441-1.441-1.441-3.781-0.004-5.219l0,0c1.441-1.438,3.777-1.438,5.219,0
		l0,0c10.426,10.422,15.648,24.117,15.641,37.777l0,0c0.008,13.652-5.215,27.348-15.637,37.762l0,0
		c-0.719,0.719-1.664,1.086-2.613,1.086l0,0C386.862,254.133,385.921,253.773,385.198,253.059L385.198,253.059z"/>
	<path fill="#FFFFFF" d="M374.585,239.977c-1.445-1.43-1.445-3.766,0-5.219l0,0c5.621-5.617,8.43-12.977,8.43-20.352l0,0
		c0-7.391-2.801-14.723-8.43-20.352l0,0c-1.438-1.438-1.438-3.773,0-5.219l0,0c1.438-1.438,3.777-1.438,5.219,0l0,0
		c7.055,7.047,10.594,16.324,10.582,25.57l0,0c0.012,9.246-3.535,18.52-10.57,25.57l0,0c-0.73,0.719-1.668,1.086-2.621,1.086l0,0
		C376.257,241.062,375.312,240.703,374.585,239.977L374.585,239.977z"/>
</g>
<g>
	<g>
		<path fill="#FFFFFF" d="M249.96,214.938c0-2.188-0.23-4.32-0.609-6.391l7.102-3.902c-1.027-4.156-2.66-8.07-4.805-11.648
			l-7.789,2.215c-2.438-3.574-5.531-6.664-9.094-9.113l2.262-7.77c-3.574-2.164-7.48-3.805-11.637-4.844l-3.945,7.082
			c-2.102-0.395-4.266-0.621-6.479-0.621c-2.184,0-4.316,0.223-6.387,0.609l-3.906-7.109c-4.156,1.031-8.062,2.664-11.645,4.805
			l2.211,7.785c-3.574,2.449-6.664,5.535-9.113,9.105l-7.77-2.266c-2.16,3.574-3.801,7.484-4.844,11.633l7.082,3.945
			c-0.391,2.105-0.625,4.266-0.625,6.484c0,2.18,0.227,4.312,0.609,6.383l-7.102,3.906c1.031,4.156,2.656,8.07,4.805,11.648
			l7.781-2.215c2.445,3.578,5.535,6.668,9.102,9.125l-2.258,7.766c3.57,2.16,7.477,3.801,11.633,4.84l3.949-7.078
			c2.098,0.398,4.262,0.625,6.477,0.625c2.183,0,4.312-0.227,6.386-0.609l3.906,7.105c4.156-1.031,8.07-2.66,11.648-4.812
			l-2.211-7.785c3.57-2.445,6.664-5.531,9.117-9.102l7.766,2.262c2.156-3.574,3.805-7.48,4.844-11.637l-7.086-3.945
			C249.729,219.312,249.96,217.152,249.96,214.938z M214.938,234.875c-11.012,0-19.938-8.926-19.938-19.938S203.926,195,214.938,195
			c11.011,0,19.937,8.926,19.937,19.938S225.948,234.875,214.938,234.875z"/>
	</g>
</g>
<g>
	<g>
		<g>
			<path fill="#FFFFFF" d="M27.07,38.293h-1.859V19.445h78.734v18.848H75.754v71.637H53.156l0,0l-0.008-71.637H27.07"/>
		</g>
	</g>
</g>
<g>
	<g>
		<g>
			<path fill="#FFFFFF" d="M223.647,19.328h1.234l38.602,90.594h-24.414l0,0l-7.984-20.688h-35.179l-7.746,20.688h-23.332
				l38.23-90.594H223.647 M223.702,70.027l-10.425-26.387l-10.031,26.387H223.702L223.702,70.027z"/>
		</g>
	</g>
</g>
<path d="M429.878,120.461c0,6.32-5.129,11.445-11.449,11.445h-109.02c-6.316,0-11.445-5.125-11.445-11.445V11.445
	C297.964,5.117,303.093,0,309.409,0h109.02c6.32,0,11.449,5.117,11.449,11.445V120.461z"/>
<g>
	<g>
		<path fill="#FFFFFF" d="M406.874,49.594c-0.086-4.988-1.082-9.789-2.988-14.359c-1.965-4.719-5.332-8.492-9.918-11.172
			c-2.5-1.469-5.203-2.531-8.09-3.172c-2.801-0.633-5.621-1.023-8.461-1.195c-1.512-0.156-3.113-0.242-4.711-0.242h-4.285
			l-0.109-0.125H325.96v90.602h21.992V79.562l20.27,0.113h5.816c3.879-0.164,7.617-0.602,11.301-1.301
			c3.844-0.734,7.441-2.281,10.703-4.609c3.918-2.867,6.773-6.516,8.465-10.879c1.578-4.059,2.371-8.277,2.371-12.625
			C406.874,50.047,406.878,49.828,406.874,49.594z M382.831,49.594c-0.059,4.688-1.387,7.133-3.863,8.5
			c-2.918,1.555-6.422,2.367-10.617,2.375h-20.398v-21.93h17.457v0.125h1.855c4.398,0,8.234,0.707,11.566,2.094
			c2.566,1.113,3.926,3.336,4,8.156V49.594z"/>
	</g>
</g>
</svg>
